<svg id="gif-1" width="100%" min-height="100vh" viewBox="0 0 1081 1920" fill="none"
    xmlns="http://www.w3.org/2000/svg">
    <g id="tri-wheel">
        <path id="Vector" d="M467.05 758.343C485.605 739.862 495.435 718.325 492.384 691.557C490.399 674.123 486.65 657.146 481.903 640.328C480.302 634.662 477.653 629.558 474.601 624.544C467.029 612.088 457.919 600.796 448.792 589.479C427.047 562.546 399.879 543.279 367.55 531.162C353.377 525.866 339.039 520.99 325.02 515.316C307.746 508.32 290.938 500.224 273.497 493.614C270.523 492.49 267.435 491.524 265.011 489.264C247.295 472.743 231.063 454.913 218.901 433.876C215.291 427.618 212.148 421.001 208.254 414.884C198.724 399.95 192.966 384.235 191.587 366.126C189.041 332.759 177.293 302.266 157.361 275.181C144.421 257.592 127.964 243.875 109.374 232.644C99.3374 226.588 87.9534 223.572 77.3259 218.871C64.9782 213.415 52.3404 211.512 39.0016 212.497C25.0739 213.529 11.1382 214.548 -2.80303 214.988C-25.2888 215.687 -44.6244 224.923 -62.4772 237.267C-73.3785 244.812 -85.0208 251.844 -92.8935 263.111C-109.413 274.329 -120.374 290.474 -131.543 306.484C-146.546 327.992 -152.556 351.648 -149.534 377.657C-146.205 406.159 -139.171 433.657 -127.784 460.03C-118.702 481.085 -109.217 501.962 -100.685 523.269C-92.141 544.623 -88.7935 566.14 -93.2903 589.017C-98.2407 614.242 -104.448 638.92 -114.244 662.82C-127.086 694.149 -140.721 724.91 -159.339 753.354C-167.814 766.3 -173.752 780.606 -178.62 795.328C-189.787 829.133 -189.592 861.784 -168.676 892.338C-153.581 915.091 -135.989 935.945 -117.567 956.143C-107.727 966.929 -97.5388 977.395 -84.8858 984.797C-54.2367 1002.76 -21.3787 1011.88 14.4554 1008.67C39.9186 1006.39 62.6605 998.067 80.5057 979.125C95.8879 962.819 109.832 945.304 122.794 927.001C135.092 909.622 144.827 890.669 156.284 872.787C167.899 854.647 184.042 842.479 204.933 836.923C215.483 834.116 226.291 834.433 237.073 834.908C257.182 835.787 277.271 835.724 297.179 832.402C303.66 831.32 309.9 831.446 316.219 832.954C323.724 834.751 331.105 834.524 338.653 832.57C347.65 830.248 356.748 827.775 365.952 826.842C395.376 823.86 418.444 809.559 438.091 788.423C447.578 778.223 457.21 768.144 467.081 758.307L467.05 758.343Z" fill="#DEEAE6"/>
    </g>
    <g id="whole">
        <g id="ball-flat">
            <path id="Vector_2" d="M847.057 1539.98C854.853 1544.78 863.326 1549.15 872.469 1549.61C881.612 1550.08 891.559 1545.71 895.097 1537.27C897.837 1530.73 896.273 1523.02 892.72 1516.88C889.168 1510.74 883.835 1505.87 878.588 1501.09C853.227 1478.01 827.865 1454.93 802.503 1431.85C795.885 1425.82 770.876 1402.3 760.075 1408.99C751.564 1414.27 770.125 1451.76 773.91 1459.36C790.289 1492.25 815.743 1520.68 847.058 1539.99L847.057 1539.98Z" fill="#92AAA3"/>
            <path id="Vector_3" d="M861.302 1379.72C851.64 1396.43 852.394 1418.62 863.162 1434.64C869.166 1443.57 878.14 1450.61 888.475 1453.61C895.289 1455.58 902.574 1455.78 909.554 1454.52C929.242 1450.94 946.052 1434.8 950.43 1415.27C954.812 1395.73 946.509 1373.96 930.234 1362.31C907.093 1345.74 875.484 1355.18 861.298 1379.72L861.302 1379.72Z" fill="#FDFBF5"/>
        </g>
    </g>
    <defs>
        <style>
:root {
        --aniDur: 10s;
      }

      #tri-wheel {
        transform-box: fill-box;
        transform-origin: center;
        animation: rounding var(--aniDur) linear infinite alternate;
      }

      @keyframes rounding {
        0% {
          transform:rotate(0deg);
        }

        100% {
          transform:rotate(30deg);
        }
      }

      #ball-flat {
        transform-box: fill-box;
        transform-origin: center;
        animation: upDown var(--aniDur) ease-out infinite alternate;
      }

      @keyframes upDown {
        0% {
          transform: translateY(0px);
        }

        100% {
          transform: translateY(-100px);
        }
      }
        </style>
    </defs>
</svg>
